<svg width="52" height="70" viewBox="0 0 52 70" fill="none" xmlns="http://www.w3.org/2000/svg">
<path d="M9.63636 45V10.0909H29.8352V12.9545H12.8239V26.0966H28.25V28.9602H12.8239V45H9.63636Z" fill="white"/>
<path d="M18.6364 61V26.0909H29.9034C32.3807 26.0909 34.4489 26.5682 36.108 27.5227C37.7784 28.4659 39.0341 29.75 39.875 31.375C40.7273 33 41.1534 34.8295 41.1534 36.8636C41.1534 38.8977 40.733 40.733 39.892 42.3693C39.0511 43.9943 37.8011 45.2841 36.142 46.2386C34.483 47.1818 32.4205 47.6534 29.9545 47.6534H21.0909V44.7898H29.8693C31.6989 44.7898 33.2159 44.4489 34.4205 43.767C35.625 43.0739 36.5227 42.1307 37.1136 40.9375C37.7159 39.7443 38.017 38.3864 38.017 36.8636C38.017 35.3409 37.7159 33.983 37.1136 32.7898C36.5227 31.5966 35.6193 30.6591 34.4034 29.9773C33.1989 29.2955 31.6705 28.9545 29.8182 28.9545H21.8239V61H18.6364Z" fill="white"/>
<path d="M19.1818 70H0.909091V0.181816H20.9545C27.3864 0.181816 32.8864 1.56818 37.4545 4.34091C42.0455 7.09091 45.5568 11.0455 47.9886 16.2045C50.4432 21.3636 51.6591 27.5682 51.6364 34.8182C51.6136 42.25 50.3182 48.5909 47.75 53.8409C45.2045 59.0682 41.5114 63.0682 36.6705 65.8409C31.8523 68.6136 26.0227 70 19.1818 70ZM3.09091 67.8182H19.1818C25.6364 67.8182 31.125 66.5114 35.6477 63.8977C40.1705 61.2614 43.6023 57.4773 45.9432 52.5455C48.3068 47.6136 49.4773 41.7045 49.4545 34.8182C49.4318 28.0227 48.2955 22.2045 46.0455 17.3636C43.8182 12.5227 40.5909 8.81818 36.3636 6.25C32.1364 3.65909 27 2.36363 20.9545 2.36363H3.09091V67.8182Z" fill="white"/>
</svg>
